<svg xmlns="http://www.w3.org/2000/svg" width="100%" height="100%" viewBox="0 0 1370 176" fill="none">
  <path fill-rule="evenodd" clip-rule="evenodd" d="M34.7417 35.0418V140.168H0V35.0418H34.7417ZM34.7417 35.0418V0H104.226V35.0418H34.7417ZM104.226 140.168V105.126H69.4833V70.0835H138.967V140.168H104.226ZM34.7417 140.168H104.226V175.209H34.7417V140.168ZM347.418 35.0418V0H451.643V35.0418H347.418ZM347.418 70.0835H416.901V105.126H347.418V70.0835ZM347.418 35.0418V70.0835H312.676V35.0418H347.418ZM416.901 140.168V175.209H312.676V140.168H416.901ZM416.901 105.126H451.643V140.168H416.901V105.126ZM521.128 140.168V175.209H486.385V140.168H521.128ZM521.128 140.168V105.126H555.869V140.168H521.128ZM590.61 70.0835V35.0418H625.351V0.0981576H659.998V35.0448L625.351 35.0418V70.0835H590.61ZM555.869 105.126V70.0835H590.61V105.126H555.869ZM277.934 175.209H173.709V0H208.451V140.168H277.934V175.209ZM921.13 0V175.209H838.172L764.941 82.4514H763.482V175.209H694.873V0H778.809L851.062 91.7764H852.522V0H921.13ZM1163.94 175.209H1074.89L1044.72 131.284L1014.55 175.209H925.51L999.957 83.6784L933.295 0H1018.69L1044.72 38.281L1070.76 0H1156.15L1089.49 83.6784L1163.94 175.209ZM1370 52.5138H1302.12V175.209H1229.14V52.5138H1161.26V0H1370V52.5138Z" fill="white"></path>
</svg>
